<svg xmlns:xlink="http://www.w3.org/1999/xlink" xmlns="http://www.w3.org/2000/svg" class="paris-icon paris-icon-clock" role="img" width="32"  height="32" ><defs><symbol id="paris-icon-clock" viewBox="0 0 32 32"><path d="M16 9c3.86 0 7 3.14 7 7s-3.14 7-7 7-7-3.14-7-7 3.14-7 7-7zm0 12.444A5.45 5.45 0 0 0 21.444 16 5.45 5.45 0 0 0 16 10.556 5.45 5.45 0 0 0 10.556 16 5.45 5.45 0 0 0 16 21.444zm.778-9.333v3.473l1.987 1.324-.863 1.295-2.68-1.787v-4.305h1.556z"></path></symbol></defs><use xlink:href="#paris-icon-clock" fill="#E22C3F"></use></svg>