<svg xmlns:xlink="http://www.w3.org/1999/xlink" xmlns="http://www.w3.org/2000/svg" class="paris-icon paris-icon-user" role="img" width="32"  height="32" ><defs><symbol id="paris-icon-user" viewBox="0 0 32 32"><path d="M18.875 12.066a6.613 6.613 0 0 1 3.326 5.727v7.02c0 .287-.114.563-.318.767-3.354 3.354-9.303 3.263-12.565 0A1.086 1.086 0 0 1 9 24.812v-7.02a6.61 6.61 0 0 1 3.14-5.615 5.183 5.183 0 1 1 6.735-.11zm-3.264 1.297l-.165.003c-2.363.082-4.275 2.045-4.275 4.427v6.546c2.382 2.04 6.421 2.095 8.86 0v-6.546c0-2.43-1.99-4.424-4.42-4.43zm-.041-2.171a3.012 3.012 0 1 0-.254-6.019 3.012 3.012 0 0 0 .254 6.019z"></path></symbol></defs><use xlink:href="#paris-icon-user" fill="#354BCF"></use></svg>